# xmcd
#
# Track frame offsets:
#	150
#	12985
#	28549
#	45056
#	58591
#	74066
#	92220
#	111299
#	129182
#	146930
#	164088
#
# Disc length: 2368 seconds
#
# Revision: 1
# Processed by: cddbd v1.5.2PL0 Copyright (c) Steve Scherf et al.
# Submitted via: audiograbber 1.83.01
#
DISCID=9a093e0b
DTITLE=The Country Dance Kings - A Tribute to Toby Keith 
DYEAR=2006
DGENRE=Country
TTITLE0=A Little Less Talk (And a Lot More Action)
TTITLE1=How Do You Like Me Now?
TTITLE2=You Shouldn't Kiss Me Like This
TTITLE3=I Wanna Talk About Me
TTITLE4=Courtesy of the Red White and Blue
TTITLE5=Who's Your Daddy?
TTITLE6=American Soldier
TTITLE7=I Love This Bar
TTITLE8=Whiskey Girl
TTITLE9=As Good as I Once Was
TTITLE10=Let's Get Drunk and Be Somebody
EXTD=
EXTT0=
EXTT1=
EXTT2=
EXTT3=
EXTT4=
EXTT5=
EXTT6=
EXTT7=
EXTT8=
EXTT9=
EXTT10=
PLAYORDER=
